<svg xmlns="http://www.w3.org/2000/svg" width="450.00000000000006" height="555">
 <!--! Font Awesome Pro 6.2.1 by @fontawesome - https://fontawesome.com License - https://fontawesome.com/license (Commercial License) Copyright 2022 Fonticons, Inc. -->

 <g>
  <title>background</title>
  <rect fill="none" id="canvas_background" height="557" width="452" y="-1" x="-1"/>
 </g>
 <g>
  <title>Layer 1</title>
  <path id="svg_1" d="m448.622648,37.320084c-83.3,11 -166.8,22 -250,33c-92,12.5 -163.3,86.7 -169,180c-3.3,55.5 18,109.5 57.8,148.2l-86.8,86.8c83.3,-11 166.5,-22 249.8,-33c91.8,-12.5 163.3,-86.8 168.7,-179.8c3.5,-55.5 -18,-109.5 -57.7,-148.2l87.2,-87zm-79.7,232.3c-4.2,79.5 -74,139.2 -152.8,134.5c-79.5,-4.7 -140.7,-71 -136.3,-151c4.5,-79.2 74.3,-139.3 153,-134.5c79.3,4.7 140.5,71 136.1,151z" fill="#f557c5"/>
  <rect transform="rotate(-36.84162902832031 231.60365295410156,258.0890197753906) " stroke="#f557c5" id="svg_2" height="581.877057" width="50.187838" y="-32.84952" x="206.509743" stroke-width="1.5" fill="#f557c5"/>
 </g>
</svg>